<?xml version="1.0" encoding="UTF-8" standalone="no"?>
<!DOCTYPE svg PUBLIC "-//W3C//DTD SVG 1.1//EN" "http://www.w3.org/Graphics/SVG/1.1/DTD/svg11.dtd">
<svg width="100%" height="100%" viewBox="0 0 434 152" version="1.1" xmlns="http://www.w3.org/2000/svg" xmlns:xlink="http://www.w3.org/1999/xlink" xml:space="preserve" xmlns:serif="http://www.serif.com/" style="fill-rule:evenodd;clip-rule:evenodd;stroke-linejoin:round;stroke-miterlimit:2;">
    <g transform="matrix(1.33333,0,0,1.33333,11.6667,-8.03173)">
        <clipPath id="_clip1">
            <rect x="0" y="18" width="308" height="95.91"/>
        </clipPath>
        <g clip-path="url(#_clip1)">
            <g transform="matrix(1,0,0,1,0,15.0238)">
                <g>
                    <g>
                        <path d="M167.344,50.543C167.344,52.496 165.766,54.078 163.809,54.078C162.625,54.078 161.574,53.496 160.934,52.598L72.824,52.598C72.129,52.598 71.48,52.23 71.125,51.629L70.531,50.625L66.027,42.988L62.742,50.625L59.996,57.004C59.684,57.734 58.965,58.211 58.164,58.199C57.367,58.191 56.652,57.703 56.355,56.965L55.152,53.984L43.484,93.906C43.234,94.758 42.457,95.328 41.59,95.328C41.52,95.328 41.441,95.324 41.371,95.316C40.418,95.207 39.68,94.43 39.617,93.473L37.016,50.625L35.082,18.801L29.191,50.625L27.992,57.086C27.832,57.949 27.121,58.602 26.25,58.691C25.375,58.777 24.547,58.277 24.223,57.465L21.469,50.625L18.238,42.594L14.449,50.625L14.031,51.512C13.703,52.211 13,52.645 12.23,52.645L8.957,52.645L6.77,52.66C6.129,53.559 5.105,54.078 3.922,54.078C1.969,54.078 0.387,52.496 0.387,50.543C0.387,48.59 1.969,47.004 3.922,47.004C5.18,47.004 6.246,47.707 6.867,48.699L8.992,48.715L10.98,48.715L16.594,36.816C16.926,36.105 17.652,35.664 18.438,35.688C19.219,35.707 19.918,36.195 20.211,36.922L25.348,49.688L34.137,2.234C34.316,1.254 35.199,0.559 36.195,0.621C37.195,0.684 37.988,1.477 38.047,2.473L40.973,50.625L42.871,81.922L52.02,50.625L52.957,47.422C53.191,46.613 53.914,46.043 54.75,46C55.594,45.957 56.363,46.453 56.68,47.234L58.051,50.625L58.242,51.098L58.445,50.625L63.941,37.855C64.234,37.172 64.887,36.715 65.629,36.668C66.367,36.621 67.074,36.992 67.453,37.633L73.953,48.648L160.824,48.648C161.449,47.66 162.551,47.004 163.809,47.004C165.762,47.004 167.344,48.59 167.344,50.543Z" style="fill:rgb(0,74,173);fill-rule:nonzero;"/>
                    </g>
                    <g transform="matrix(1,0,0,1,41.9069,36.1255)">
                        <g>
                            <g>
                                <path d="M1.891,0L1.891,-27.484L10.328,-27.484C16.422,-27.484 19.469,-25.102 19.469,-20.344C19.469,-18.813 19.07,-17.484 18.281,-16.359C17.5,-15.242 16.441,-14.547 15.109,-14.266C16.672,-14.035 17.891,-13.352 18.766,-12.219C19.648,-11.094 20.109,-9.617 20.141,-7.797C20.141,-2.598 16.738,0 9.938,0L1.891,0ZM10.578,-3.781C12.422,-3.781 13.734,-4.18 14.516,-4.984C15.297,-5.797 15.688,-6.879 15.688,-8.234C15.688,-9.598 15.258,-10.586 14.406,-11.203C13.551,-11.816 12.203,-12.125 10.359,-12.125L6.25,-12.125L6.25,-3.781L10.578,-3.781ZM15.188,-20.016C15.188,-22.473 13.66,-23.703 10.609,-23.703L6.25,-23.703L6.25,-15.906L10.281,-15.906C13.551,-15.906 15.188,-17.273 15.188,-20.016Z" style="fill:rgb(0,74,173);fill-rule:nonzero;"/>
                            </g>
                        </g>
                    </g>
                    <g transform="matrix(1,0,0,1,66.0684,36.1255)">
                        <g>
                            <g>
                                <path d="M1.094,-9.234L1.094,-27.484L5.5,-27.484L5.5,-9.734C5.5,-7.578 5.848,-6.008 6.547,-5.031C7.211,-4.051 8.492,-3.563 10.391,-3.563C12.297,-3.563 13.613,-4.035 14.344,-4.984C15.07,-5.941 15.438,-7.523 15.438,-9.734L15.438,-27.484L19.844,-27.484L19.844,-9.234C19.844,-5.961 19.133,-3.539 17.719,-1.969C16.313,-0.406 13.844,0.375 10.313,0.375C6.789,0.375 4.375,-0.422 3.063,-2.016C1.75,-3.609 1.094,-6.016 1.094,-9.234Z" style="fill:rgb(0,74,173);fill-rule:nonzero;"/>
                            </g>
                        </g>
                    </g>
                    <g transform="matrix(1,0,0,1,90.2298,36.1255)">
                        <g>
                            <g>
                                <path d="M1.594,0L1.594,-27.484L8.141,-27.484C10.348,-27.484 12.129,-27.301 13.484,-26.938C14.836,-26.57 15.988,-25.883 16.938,-24.875C17.895,-23.875 18.566,-22.484 18.953,-20.703C19.348,-18.93 19.547,-16.414 19.547,-13.156C19.547,-9.895 19.145,-7.27 18.344,-5.281C17.551,-3.301 16.359,-1.926 14.766,-1.156C13.172,-0.383 10.938,0 8.063,0L1.594,0ZM13.422,-5.578C14.066,-6.305 14.508,-7.305 14.75,-8.578C14.988,-9.848 15.109,-11.582 15.109,-13.781C15.109,-15.977 15.008,-17.703 14.813,-18.953C14.613,-20.211 14.195,-21.211 13.563,-21.953C12.938,-22.703 12.16,-23.18 11.234,-23.391C10.316,-23.598 9.004,-23.703 7.297,-23.703L5.953,-23.703L5.953,-3.781L7.219,-3.781C8.844,-3.781 10.117,-3.895 11.047,-4.125C11.984,-4.363 12.773,-4.848 13.422,-5.578Z" style="fill:rgb(0,74,173);fill-rule:nonzero;"/>
                            </g>
                        </g>
                    </g>
                    <g transform="matrix(1,0,0,1,114.391,36.1255)">
                        <g>
                            <g>
                                <path d="M11.156,0.375C7.602,0.375 5.008,-0.727 3.375,-2.938C1.738,-5.145 0.922,-8.723 0.922,-13.672C0.922,-18.629 1.766,-22.238 3.453,-24.5C5.148,-26.77 7.801,-27.906 11.406,-27.906C14.258,-27.906 16.832,-27.508 19.125,-26.719L18.375,-22.984C16.414,-23.66 14.094,-24 11.406,-24C9.195,-24 7.641,-23.203 6.734,-21.609C5.828,-20.016 5.375,-17.441 5.375,-13.891C5.375,-10.336 5.852,-7.742 6.813,-6.109C7.781,-4.473 9.227,-3.656 11.156,-3.656C12.531,-3.656 13.973,-3.832 15.484,-4.188L15.484,-10.703L11.578,-10.703L11.578,-14.563L19.672,-14.563L19.672,-1.047C17.016,-0.098 14.176,0.375 11.156,0.375Z" style="fill:rgb(0,74,173);fill-rule:nonzero;"/>
                            </g>
                        </g>
                    </g>
                    <g transform="matrix(1,0,0,1,138.553,36.1255)">
                        <g>
                            <g>
                                <path d="M2.516,0L2.516,-27.484L18.578,-27.484L18.578,-23.531L6.875,-23.531L6.875,-15.906L17.453,-15.906L17.453,-12.125L6.875,-12.125L6.875,-3.938L18.719,-3.938L18.719,0L2.516,0Z" style="fill:rgb(0,74,173);fill-rule:nonzero;"/>
                            </g>
                        </g>
                    </g>
                    <g transform="matrix(1,0,0,1,162.714,36.1255)">
                        <g>
                            <g>
                                <path d="M1.172,-23.531L1.172,-27.484L19.719,-27.484L19.719,-23.531L12.625,-23.531L12.625,0L8.266,0L8.266,-23.531L1.172,-23.531Z" style="fill:rgb(0,74,173);fill-rule:nonzero;"/>
                            </g>
                        </g>
                    </g>
                    <g transform="matrix(1,0,0,1,186.889,36.1255)">
                        <g>
                            <g>
                                <path d="M9.063,-10.063L5.203,-10.063L5.203,0L2.891,0L2.891,-27.484L9.063,-27.484C12.414,-27.484 14.895,-26.844 16.5,-25.563C18.113,-24.289 18.922,-22.086 18.922,-18.953C18.922,-15.828 18.109,-13.563 16.484,-12.156C14.859,-10.758 12.383,-10.063 9.063,-10.063ZM9.063,-25.375L5.203,-25.375L5.203,-12.172L9.063,-12.172C11.633,-12.172 13.516,-12.688 14.703,-13.719C15.891,-14.75 16.484,-16.484 16.484,-18.922C16.484,-21.359 15.895,-23.039 14.719,-23.969C13.551,-24.906 11.664,-25.375 9.063,-25.375Z" style="fill:rgb(255,145,77);fill-rule:nonzero;"/>
                            </g>
                        </g>
                    </g>
                    <g transform="matrix(1,0,0,1,211.05,36.1255)">
                        <g>
                            <g>
                                <path d="M2.266,-7.922L2.266,-27.484L4.578,-27.484L4.578,-8.219C4.578,-3.914 6.547,-1.766 10.484,-1.766C12.473,-1.766 13.957,-2.359 14.938,-3.547C15.914,-4.734 16.406,-6.289 16.406,-8.219L16.406,-27.484L18.719,-27.484L18.719,-7.922C18.719,-5.211 18.008,-3.145 16.594,-1.719C15.176,-0.289 13.109,0.422 10.391,0.422C7.68,0.422 5.648,-0.316 4.297,-1.797C2.941,-3.285 2.266,-5.328 2.266,-7.922Z" style="fill:rgb(255,145,77);fill-rule:nonzero;"/>
                            </g>
                        </g>
                    </g>
                    <g transform="matrix(1,0,0,1,235.212,36.1255)">
                        <g>
                            <g>
                                <path d="M17.578,-2.141L17.578,0L3.813,0L3.813,-27.484L6.125,-27.484L6.125,-2.141L17.578,-2.141Z" style="fill:rgb(255,145,77);fill-rule:nonzero;"/>
                            </g>
                        </g>
                    </g>
                    <g transform="matrix(1,0,0,1,259.373,36.1255)">
                        <g>
                            <g>
                                <path d="M9.5,-13.188C7,-13.789 5.164,-14.672 4,-15.828C2.844,-16.992 2.266,-18.68 2.266,-20.891C2.266,-23.098 3.023,-24.816 4.547,-26.047C6.078,-27.285 8.039,-27.906 10.438,-27.906C12.844,-27.906 15.289,-27.469 17.781,-26.594L17.203,-24.453C14.879,-25.297 12.742,-25.719 10.797,-25.719C8.859,-25.719 7.367,-25.301 6.328,-24.469C5.297,-23.645 4.781,-22.453 4.781,-20.891C4.781,-19.328 5.195,-18.141 6.031,-17.328C6.875,-16.516 8.547,-15.781 11.047,-15.125C13.555,-14.469 15.367,-13.598 16.484,-12.516C17.609,-11.441 18.172,-9.707 18.172,-7.313C18.172,-4.926 17.363,-3.039 15.75,-1.656C14.145,-0.27 12.066,0.422 9.516,0.422C7.617,0.422 5.219,0.016 2.313,-0.797L2.859,-2.938C5.703,-2.156 7.988,-1.766 9.719,-1.766C11.457,-1.766 12.883,-2.242 14,-3.203C15.125,-4.172 15.688,-5.52 15.688,-7.25C15.688,-8.988 15.281,-10.266 14.469,-11.078C13.656,-11.891 12,-12.594 9.5,-13.188Z" style="fill:rgb(255,145,77);fill-rule:nonzero;"/>
                            </g>
                        </g>
                    </g>
                    <g transform="matrix(1,0,0,1,283.535,36.1255)">
                        <g>
                            <g>
                                <path d="M3.438,0L3.438,-27.484L17.75,-27.484L17.75,-25.422L5.75,-25.422L5.75,-15.016L16.609,-15.016L16.609,-12.969L5.75,-12.969L5.75,-2.063L17.875,-2.063L17.875,0L3.438,0Z" style="fill:rgb(255,145,77);fill-rule:nonzero;"/>
                            </g>
                        </g>
                    </g>
                </g>
            </g>
        </g>
    </g>
</svg>
